<svg xmlns="http://www.w3.org/2000/svg" viewBox="0 0 400 480" width="400" height="480" role="img" aria-label="QRServe logo">
  <title>QRServe</title>

  <!-- ── Background ──────────────────────────────────────────────────────── -->
  <rect width="400" height="480" fill="#080808" rx="20"/>

  <!-- ── QR Corner Finder Patterns ──────────────────────────────────────── -->
  <!-- Each pattern: 7-module outer □, 5-module gap, 3-module inner □      -->
  <!-- Module size: 10px  ·  Pattern size: 70×70                           -->

  <!-- Top-left -->
  <rect x="40"  y="40"  width="70" height="70" rx="7" fill="#E8C547"/>
  <rect x="50"  y="50"  width="50" height="50" rx="4" fill="#080808"/>
  <rect x="60"  y="60"  width="30" height="30" rx="3" fill="#E8C547"/>

  <!-- Top-right -->
  <rect x="290" y="40"  width="70" height="70" rx="7" fill="#E8C547"/>
  <rect x="300" y="50"  width="50" height="50" rx="4" fill="#080808"/>
  <rect x="310" y="60"  width="30" height="30" rx="3" fill="#E8C547"/>

  <!-- Bottom-left -->
  <rect x="40"  y="290" width="70" height="70" rx="7" fill="#E8C547"/>
  <rect x="50"  y="300" width="50" height="50" rx="4" fill="#080808"/>
  <rect x="60"  y="310" width="30" height="30" rx="3" fill="#E8C547"/>

  <!-- ── Data modules (structured QR-like pattern) ──────────────────────── -->
  <g fill="#E8C547" opacity="0.9">

    <!-- Top strip (between TL and TR) -->
    <rect x="122" y="40"  width="10" height="10" rx="2"/>
    <rect x="140" y="40"  width="18" height="10" rx="2"/>
    <rect x="170" y="40"  width="10" height="10" rx="2"/>
    <rect x="192" y="40"  width="10" height="10" rx="2"/>
    <rect x="214" y="40"  width="18" height="10" rx="2"/>
    <rect x="248" y="40"  width="10" height="10" rx="2"/>
    <rect x="268" y="40"  width="10" height="10" rx="2"/>

    <rect x="122" y="56"  width="18" height="10" rx="2"/>
    <rect x="158" y="56"  width="10" height="10" rx="2"/>
    <rect x="184" y="56"  width="18" height="10" rx="2"/>
    <rect x="220" y="56"  width="10" height="10" rx="2"/>
    <rect x="248" y="56"  width="18" height="10" rx="2"/>

    <rect x="122" y="72"  width="10" height="10" rx="2"/>
    <rect x="148" y="72"  width="18" height="10" rx="2"/>
    <rect x="182" y="72"  width="10" height="10" rx="2"/>
    <rect x="210" y="72"  width="18" height="10" rx="2"/>
    <rect x="248" y="72"  width="10" height="10" rx="2"/>
    <rect x="266" y="72"  width="12" height="10" rx="2"/>

    <!-- Left strip (between TL and BL) -->
    <rect x="40"  y="122" width="10" height="10" rx="2"/>
    <rect x="58"  y="122" width="22" height="10" rx="2"/>
    <rect x="40"  y="140" width="22" height="10" rx="2"/>
    <rect x="72"  y="140" width="10" height="10" rx="2"/>
    <rect x="40"  y="158" width="10" height="10" rx="2"/>
    <rect x="60"  y="158" width="10" height="10" rx="2"/>
    <rect x="78"  y="158" width="12" height="10" rx="2"/>
    <rect x="40"  y="176" width="22" height="10" rx="2"/>
    <rect x="72"  y="176" width="10" height="10" rx="2"/>
    <rect x="40"  y="194" width="10" height="10" rx="2"/>
    <rect x="58"  y="194" width="12" height="10" rx="2"/>
    <rect x="40"  y="212" width="22" height="10" rx="2"/>
    <rect x="72"  y="212" width="10" height="10" rx="2"/>
    <rect x="40"  y="230" width="10" height="10" rx="2"/>
    <rect x="60"  y="230" width="22" height="10" rx="2"/>
    <rect x="40"  y="248" width="12" height="10" rx="2"/>
    <rect x="66"  y="248" width="10" height="10" rx="2"/>
    <rect x="84"  y="248" width="6"  height="10" rx="2"/>
    <rect x="40"  y="266" width="22" height="10" rx="2"/>
    <rect x="72"  y="266" width="10" height="10" rx="2"/>

    <!-- Right strip -->
    <rect x="290" y="122" width="10" height="10" rx="2"/>
    <rect x="310" y="122" width="20" height="10" rx="2"/>
    <rect x="342" y="122" width="18" height="10" rx="2"/>
    <rect x="290" y="140" width="22" height="10" rx="2"/>
    <rect x="326" y="140" width="10" height="10" rx="2"/>
    <rect x="350" y="140" width="10" height="10" rx="2"/>
    <rect x="290" y="158" width="10" height="10" rx="2"/>
    <rect x="312" y="158" width="18" height="10" rx="2"/>
    <rect x="344" y="158" width="16" height="10" rx="2"/>
    <rect x="290" y="176" width="22" height="10" rx="2"/>
    <rect x="326" y="176" width="10" height="10" rx="2"/>
    <rect x="348" y="176" width="12" height="10" rx="2"/>
    <rect x="290" y="194" width="10" height="10" rx="2"/>
    <rect x="310" y="194" width="20" height="10" rx="2"/>
    <rect x="344" y="194" width="16" height="10" rx="2"/>
    <rect x="290" y="212" width="22" height="10" rx="2"/>
    <rect x="326" y="212" width="10" height="10" rx="2"/>
    <rect x="290" y="230" width="10" height="10" rx="2"/>
    <rect x="312" y="230" width="18" height="10" rx="2"/>
    <rect x="344" y="230" width="16" height="10" rx="2"/>
    <rect x="290" y="248" width="22" height="10" rx="2"/>
    <rect x="324" y="248" width="10" height="10" rx="2"/>
    <rect x="348" y="248" width="12" height="10" rx="2"/>
    <rect x="290" y="266" width="10" height="10" rx="2"/>
    <rect x="312" y="266" width="20" height="10" rx="2"/>

    <!-- Bottom strip (between BL and BR area) -->
    <rect x="122" y="290" width="10" height="10" rx="2"/>
    <rect x="142" y="290" width="18" height="10" rx="2"/>
    <rect x="174" y="290" width="10" height="10" rx="2"/>
    <rect x="200" y="290" width="18" height="10" rx="2"/>
    <rect x="236" y="290" width="10" height="10" rx="2"/>
    <rect x="258" y="290" width="12" height="10" rx="2"/>
    <rect x="122" y="308" width="18" height="10" rx="2"/>
    <rect x="156" y="308" width="10" height="10" rx="2"/>
    <rect x="180" y="308" width="18" height="10" rx="2"/>
    <rect x="214" y="308" width="10" height="10" rx="2"/>
    <rect x="242" y="308" width="18" height="10" rx="2"/>
    <rect x="122" y="326" width="10" height="10" rx="2"/>
    <rect x="148" y="326" width="18" height="10" rx="2"/>
    <rect x="180" y="326" width="10" height="10" rx="2"/>
    <rect x="206" y="326" width="18" height="10" rx="2"/>
    <rect x="240" y="326" width="10" height="10" rx="2"/>
    <rect x="264" y="326" width="6"  height="10" rx="2"/>
    <rect x="122" y="344" width="18" height="10" rx="2"/>
    <rect x="154" y="344" width="10" height="10" rx="2"/>
    <rect x="178" y="344" width="18" height="10" rx="2"/>
    <rect x="210" y="344" width="10" height="10" rx="2"/>
    <rect x="240" y="344" width="20" height="10" rx="2"/>

    <!-- Bottom-right block (no finder pattern here in standard QR) -->
    <rect x="290" y="290" width="22" height="10" rx="2"/>
    <rect x="326" y="290" width="10" height="10" rx="2"/>
    <rect x="350" y="290" width="10" height="10" rx="2"/>
    <rect x="290" y="308" width="10" height="10" rx="2"/>
    <rect x="314" y="308" width="18" height="10" rx="2"/>
    <rect x="348" y="308" width="12" height="10" rx="2"/>
    <rect x="290" y="326" width="22" height="10" rx="2"/>
    <rect x="326" y="326" width="10" height="10" rx="2"/>
    <rect x="352" y="326" width="8"  height="10" rx="2"/>
    <rect x="290" y="344" width="10" height="10" rx="2"/>
    <rect x="314" y="344" width="20" height="10" rx="2"/>
    <rect x="350" y="344" width="10" height="10" rx="2"/>
  </g>

  <!-- ── Center: subtle glow ring ─────────────────────────────────────── -->
  <circle cx="200" cy="200" r="68" fill="none" stroke="#E8C547" stroke-width="1" opacity="0.12"/>
  <circle cx="200" cy="200" r="56" fill="#E8C547" opacity="0.06"/>

  <!-- ── Fork & Knife Icon ────────────────────────────────────────────── -->
  <g fill="#E8C547">

    <!-- FORK (centered at x=183) -->
    <!-- Tine 1 -->
    <rect x="164" y="134" width="8" height="42" rx="4"/>
    <!-- Tine 2 -->
    <rect x="178" y="134" width="8" height="42" rx="4"/>
    <!-- Tine 3 -->
    <rect x="192" y="134" width="8" height="42" rx="4"/>
    <!-- Fork arch (where tines meet) -->
    <path d="M164 176 Q164 196 183 200 Q202 196 200 176 L192 176 Q192 188 183 192 Q174 188 172 176 Z"/>
    <!-- Fork handle -->
    <rect x="175" y="199" width="16" height="72" rx="6"/>

    <!-- KNIFE (centered at x=222) -->
    <!-- Blade body -->
    <path d="M213,134 L231,134 L231,204 Q222,208 213,204 Z" rx="2"/>
    <!-- Blade bevel (right-side taper for realism) -->
    <path d="M231,134 L238,160 L231,204 Z" opacity="0.55"/>
    <!-- Bolster (transition between blade and handle) -->
    <rect x="211" y="200" width="22" height="7" rx="3" opacity="0.85"/>
    <!-- Knife handle -->
    <rect x="213" y="207" width="18" height="64" rx="6"/>
    <!-- Handle rivets -->
    <circle cx="222" cy="224" r="2.5" fill="#080808" opacity="0.5"/>
    <circle cx="222" cy="244" r="2.5" fill="#080808" opacity="0.5"/>
    <circle cx="222" cy="264" r="2.5" fill="#080808" opacity="0.5"/>
  </g>

  <!-- ── Wordmark ──────────────────────────────────────────────────────── -->
  <text
    x="200" y="415"
    text-anchor="middle"
    font-family="-apple-system, BlinkMacSystemFont, 'Segoe UI', Helvetica, Arial, sans-serif"
    font-weight="900"
    font-size="38"
    letter-spacing="2"
    fill="#F0EDE8"
  >QRServe</text>

  <text
    x="200" y="448"
    text-anchor="middle"
    font-family="-apple-system, BlinkMacSystemFont, 'Segoe UI', Helvetica, Arial, sans-serif"
    font-weight="500"
    font-size="11"
    letter-spacing="5"
    fill="#E8C547"
    opacity="0.85"
  >QR ORDERING PLATFORM</text>
</svg>
